<svg width="500" height="500" viewBox="0 0 500 500" fill="none" xmlns="http://www.w3.org/2000/svg">
<path d="M120 234.031V233.901V103.891L118.8 103.001H118.7L91.4 82.8008C74.7 70.4008 50.9 71.0008 36.1 85.6008C26.2 95.4008 20 109.001 20 124.101V160.121L120 234.031ZM380 233.901V234.031L480 160.121V124.101C480 109.201 474 95.6008 464.2 85.8008C449.6 71.2308 426.55 69.5208 409.96 81.7708L381.2 103.001L380 103.891V233.901ZM140 248.681L244.06 325.601C247.59 328.211 252.42 328.211 255.95 325.601L360 248.681V118.671L250 200.001L140 118.671V248.681ZM380 258.891V410.001C380 415.521 384.48 420.001 390 420.001H455C468.81 420.001 480 408.811 480 395.001V184.971L380 258.891ZM120 258.891L20 184.971V395.001C20 408.811 31.19 420.001 45 420.001H110C115.52 420.001 120 415.521 120 410.001V258.891Z" fill="white"/>
</svg>
