<svg width="550" height="550" viewBox="0 0 550 550" fill="none" xmlns="http://www.w3.org/2000/svg">
<path d="M412.5 68.75H137.5C99.5328 68.75 68.75 99.5328 68.75 137.5V412.5C68.75 450.467 99.5328 481.25 137.5 481.25H412.5C450.467 481.25 481.25 450.467 481.25 412.5V137.5C481.25 99.5328 450.467 68.75 412.5 68.75ZM206.25 403.906H163.281V232.031H206.25V403.906ZM206.499 197.734C200.939 203.405 193.686 206.25 184.766 206.25C175.948 206.25 168.738 203.32 163.118 197.459C157.498 191.598 154.688 184.405 154.688 175.897C154.688 167.131 157.498 159.981 163.118 154.43C168.738 148.87 175.948 146.094 184.766 146.094C193.686 146.094 200.939 148.87 206.499 154.421C212.059 159.973 214.844 167.131 214.844 175.897C214.844 184.783 212.059 192.062 206.499 197.734ZM403.906 403.906H360.938V308.404C360.938 281.772 345.589 266.406 326.562 266.406C317.393 266.406 307.02 271.975 301.082 279.03C295.144 286.086 292.188 295.032 292.188 305.886V403.906H249.219V232.031H292.188V259.222H292.858C305.508 238.296 323.907 227.906 348.081 227.837C382.422 227.734 403.906 253.516 403.906 298.667V403.906Z" fill="white"/>
</svg>
