<svg width="602" height="599" viewBox="0 0 602 599" fill="none" xmlns="http://www.w3.org/2000/svg">
<rect x="82" y="52" width="377" height="451" fill="white"/>
<circle cx="157.5" cy="127.5" r="22.5" fill="#55ACEE"/>
<path d="M193 188.607C193 207.55 181.173 199.139 159.446 199.139C137.72 199.139 123 207.55 123 188.607C123 169.664 137.72 154 159.446 154C181.173 154 193 169.664 193 188.607Z" fill="#55ACEE"/>
<rect x="252" y="117" width="117" height="22" rx="11" fill="#55ACEE"/>
<rect x="252" y="174" width="117" height="22" rx="11" fill="#55ACEE"/>
<rect x="121" y="266" width="222" height="22" rx="11" fill="#55ACEE"/>
<rect x="121" y="372" width="222" height="22" rx="11" fill="#55ACEE"/>
<rect x="121" y="319" width="162" height="22" rx="11" fill="#55ACEE"/>
<circle cx="425" cy="451" r="82" fill="white"/>
<rect x="410" y="394" width="30" height="71" fill="#55ACEE"/>
<path d="M424.5 507L392.024 463.5H456.976L424.5 507Z" fill="#55ACEE"/>
</svg>
